<mxfile host="65bd71144e">
    <diagram id="MtLG95kfh5mEK6smX6_D" name="Page-1">
        <mxGraphModel dx="792" dy="863" grid="1" gridSize="8" guides="1" tooltips="1" connect="1" arrows="1" fold="1" page="1" pageScale="1" pageWidth="850" pageHeight="1100" math="0" shadow="0">
            <root>
                <mxCell id="0"/>
                <mxCell id="1" parent="0"/>
                <mxCell id="5" value="" style="ellipse;html=1;shape=startState;fillColor=#000000;strokeColor=#ff0000;" parent="1" vertex="1">
                    <mxGeometry x="400.5" y="32" width="40" height="40" as="geometry"/>
                </mxCell>
                <mxCell id="6" value="" style="edgeStyle=orthogonalEdgeStyle;html=1;verticalAlign=bottom;endArrow=open;endSize=8;strokeColor=#ff0000;" parent="1" source="5" edge="1">
                    <mxGeometry relative="1" as="geometry">
                        <mxPoint x="420.5" y="134" as="targetPoint"/>
                        <mxPoint x="420.5" y="64" as="sourcePoint"/>
                    </mxGeometry>
                </mxCell>
                <mxCell id="8" value="&lt;font style=&quot;font-size: 18px;&quot;&gt;Fill out login form by user&lt;/font&gt;" style="rounded=1;whiteSpace=wrap;html=1;arcSize=40;fontColor=#000000;fillColor=#ffffc0;strokeColor=#ff0000;strokeWidth=3;" parent="1" vertex="1">
                    <mxGeometry x="355.5" y="134" width="130" height="60" as="geometry"/>
                </mxCell>
                <mxCell id="9" value="" style="edgeStyle=orthogonalEdgeStyle;html=1;verticalAlign=bottom;endArrow=open;endSize=8;strokeColor=#ff0000;" parent="1" source="8" target="11" edge="1">
                    <mxGeometry relative="1" as="geometry">
                        <mxPoint x="259.5" y="164" as="targetPoint"/>
                        <Array as="points"/>
                    </mxGeometry>
                </mxCell>
                <mxCell id="11" value="Send the data to the server" style="rounded=1;whiteSpace=wrap;html=1;arcSize=40;fontColor=#000000;fillColor=#ffffc0;strokeColor=#ff0000;strokeWidth=3;fontSize=18;" parent="1" vertex="1">
                    <mxGeometry x="141.5" y="129" width="150" height="70" as="geometry"/>
                </mxCell>
                <mxCell id="12" value="" style="edgeStyle=orthogonalEdgeStyle;html=1;verticalAlign=bottom;endArrow=open;endSize=8;strokeColor=#ff0000;fontSize=18;entryX=0;entryY=0.5;entryDx=0;entryDy=0;startArrow=none;" parent="1" source="89" target="98" edge="1">
                    <mxGeometry relative="1" as="geometry">
                        <mxPoint x="243.5" y="398.9999999999998" as="targetPoint"/>
                    </mxGeometry>
                </mxCell>
                <mxCell id="17" value="" style="rhombus;whiteSpace=wrap;html=1;fillColor=#ffffc0;strokeColor=#ff0000;strokeWidth=3;fontSize=18;" parent="1" vertex="1">
                    <mxGeometry x="320" y="664" width="30" height="40" as="geometry"/>
                </mxCell>
                <mxCell id="18" value="&lt;span style=&quot;font-size: 13px;&quot;&gt;Inappropriate data&lt;/span&gt;" style="edgeStyle=orthogonalEdgeStyle;html=1;align=center;verticalAlign=bottom;endArrow=open;endSize=8;strokeColor=#ff0000;fontSize=18;labelBackgroundColor=none;exitX=0.5;exitY=1;exitDx=0;exitDy=0;" parent="1" source="17" target="81" edge="1">
                    <mxGeometry x="-0.8436" y="-32" relative="1" as="geometry">
                        <mxPoint x="647.5" y="302" as="targetPoint"/>
                        <mxPoint as="offset"/>
                        <mxPoint x="417.4999999999998" y="603.9999999999998" as="sourcePoint"/>
                        <Array as="points">
                            <mxPoint x="336" y="704"/>
                            <mxPoint x="336" y="728"/>
                            <mxPoint x="704" y="728"/>
                        </Array>
                    </mxGeometry>
                </mxCell>
                <mxCell id="19" value="&lt;span style=&quot;font-size: 13px;&quot;&gt;Appropriate data&lt;/span&gt;" style="edgeStyle=orthogonalEdgeStyle;html=1;align=center;verticalAlign=top;endArrow=open;endSize=8;strokeColor=#ff0000;fontSize=18;labelBackgroundColor=none;exitX=0;exitY=0.5;exitDx=0;exitDy=0;" parent="1" source="17" target="69" edge="1">
                    <mxGeometry x="-0.5789" y="-44" relative="1" as="geometry">
                        <mxPoint x="160" y="856" as="targetPoint"/>
                        <mxPoint x="505.03666666666663" y="515.9988888888889" as="sourcePoint"/>
                        <Array as="points">
                            <mxPoint x="160" y="684"/>
                        </Array>
                        <mxPoint as="offset"/>
                    </mxGeometry>
                </mxCell>
                <mxCell id="59" value="Incorrect password" style="edgeStyle=orthogonalEdgeStyle;html=1;align=center;verticalAlign=bottom;endArrow=open;endSize=8;strokeColor=#ff0000;fontSize=14;labelBackgroundColor=none;" parent="1" source="58" target="83" edge="1">
                    <mxGeometry x="-0.631" y="-30" relative="1" as="geometry">
                        <mxPoint x="713.5" y="842" as="targetPoint"/>
                        <mxPoint as="offset"/>
                    </mxGeometry>
                </mxCell>
                <mxCell id="60" value="Correct&lt;br style=&quot;font-size: 14px;&quot;&gt;password" style="edgeStyle=orthogonalEdgeStyle;html=1;align=center;verticalAlign=top;endArrow=open;endSize=8;strokeColor=#ff0000;fontSize=14;labelBackgroundColor=none;entryX=0.5;entryY=0;entryDx=0;entryDy=0;exitX=0.5;exitY=1;exitDx=0;exitDy=0;" parent="1" source="58" edge="1">
                    <mxGeometry x="0.0706" y="-54" relative="1" as="geometry">
                        <mxPoint x="277.5" y="1000" as="targetPoint"/>
                        <mxPoint x="322.5666666666666" y="890.9988888888886" as="sourcePoint"/>
                        <Array as="points">
                            <mxPoint x="322.5" y="941"/>
                            <mxPoint x="277.5" y="941"/>
                        </Array>
                        <mxPoint x="24" y="-45" as="offset"/>
                    </mxGeometry>
                </mxCell>
                <mxCell id="58" value="" style="rhombus;whiteSpace=wrap;html=1;fillColor=#ffffc0;strokeColor=#ff0000;strokeWidth=3;fontSize=18;" parent="1" vertex="1">
                    <mxGeometry x="306.5" y="878" width="30" height="40" as="geometry"/>
                </mxCell>
                <mxCell id="69" value="Check the password is correct" style="rounded=1;whiteSpace=wrap;html=1;arcSize=40;fontColor=#000000;fillColor=#ffffc0;strokeColor=#ff0000;strokeWidth=3;fontFamily=Helvetica;fontSize=18;" parent="1" vertex="1">
                    <mxGeometry x="101.5" y="752" width="120" height="80" as="geometry"/>
                </mxCell>
                <mxCell id="70" value="" style="edgeStyle=orthogonalEdgeStyle;html=1;verticalAlign=bottom;endArrow=open;endSize=8;strokeColor=#ff0000;labelBackgroundColor=none;fontFamily=Helvetica;fontSize=18;fontColor=#FFFFFF;" parent="1" source="69" target="58" edge="1">
                    <mxGeometry relative="1" as="geometry">
                        <mxPoint x="438.5" y="790.0526315789475" as="targetPoint"/>
                        <Array as="points">
                            <mxPoint x="320" y="790"/>
                        </Array>
                    </mxGeometry>
                </mxCell>
                <mxCell id="71" value="Show successful message" style="rounded=1;whiteSpace=wrap;html=1;arcSize=40;fontColor=#000000;fillColor=#ffffc0;strokeColor=#ff0000;strokeWidth=3;fontFamily=Helvetica;fontSize=18;" parent="1" vertex="1">
                    <mxGeometry x="223.5" y="990" width="111" height="80" as="geometry"/>
                </mxCell>
                <mxCell id="72" value="" style="edgeStyle=orthogonalEdgeStyle;html=1;verticalAlign=bottom;endArrow=open;endSize=8;strokeColor=#ff0000;labelBackgroundColor=none;fontFamily=Helvetica;fontSize=18;fontColor=#FFFFFF;" parent="1" source="71" edge="1">
                    <mxGeometry relative="1" as="geometry">
                        <mxPoint x="427.5" y="1030" as="targetPoint"/>
                    </mxGeometry>
                </mxCell>
                <mxCell id="74" value="Ask for OTP" style="rounded=1;whiteSpace=wrap;html=1;arcSize=40;fontColor=#000000;fillColor=#ffffc0;strokeColor=#ff0000;strokeWidth=3;fontFamily=Helvetica;fontSize=18;" parent="1" vertex="1">
                    <mxGeometry x="399.5" y="1000" width="120" height="60" as="geometry"/>
                </mxCell>
                <mxCell id="81" value="Error message for bad data" style="rounded=1;whiteSpace=wrap;html=1;arcSize=40;fontColor=#000000;fillColor=#ffffc0;strokeColor=#ff0000;strokeWidth=3;fontFamily=Helvetica;fontSize=18;" parent="1" vertex="1">
                    <mxGeometry x="643.5" y="208" width="120" height="82" as="geometry"/>
                </mxCell>
                <mxCell id="82" value="" style="edgeStyle=orthogonalEdgeStyle;html=1;verticalAlign=bottom;endArrow=open;endSize=8;strokeColor=#ff0000;labelBackgroundColor=none;fontFamily=Helvetica;fontSize=18;fontColor=#FFFFFF;exitX=0.5;exitY=0;exitDx=0;exitDy=0;" parent="1" source="81" target="8" edge="1">
                    <mxGeometry relative="1" as="geometry">
                        <mxPoint x="645.5" y="158" as="targetPoint"/>
                        <Array as="points">
                            <mxPoint x="703.5" y="164"/>
                        </Array>
                        <mxPoint x="703.5" y="164" as="sourcePoint"/>
                    </mxGeometry>
                </mxCell>
                <mxCell id="83" value="Show incorrect entry password message" style="rounded=1;whiteSpace=wrap;html=1;arcSize=40;fontColor=#000000;fillColor=#ffffc0;strokeColor=#ff0000;strokeWidth=3;fontFamily=Helvetica;fontSize=18;" parent="1" vertex="1">
                    <mxGeometry x="657.5" y="772" width="144" height="88" as="geometry"/>
                </mxCell>
                <mxCell id="85" value="" style="edgeStyle=orthogonalEdgeStyle;html=1;verticalAlign=bottom;endArrow=open;endSize=8;strokeColor=#ff0000;labelBackgroundColor=none;fontFamily=Helvetica;fontSize=18;fontColor=#FFFFFF;entryX=1;entryY=0.5;entryDx=0;entryDy=0;" parent="1" source="83" target="123" edge="1">
                    <mxGeometry relative="1" as="geometry">
                        <mxPoint x="568.4999999999998" y="790.0526315789475" as="targetPoint"/>
                        <mxPoint x="580.5" y="708" as="sourcePoint"/>
                    </mxGeometry>
                </mxCell>
                <mxCell id="89" value="&lt;span style=&quot;font-size: 18px;&quot;&gt;Checkout that request contains jwt tokens&lt;/span&gt;" style="rounded=1;whiteSpace=wrap;html=1;arcSize=40;fontColor=#000000;fillColor=#ffffc0;strokeColor=#ff0000;strokeWidth=3;" parent="1" vertex="1">
                    <mxGeometry x="105" y="264" width="157" height="80" as="geometry"/>
                </mxCell>
                <mxCell id="92" value="" style="edgeStyle=orthogonalEdgeStyle;html=1;verticalAlign=bottom;endArrow=open;endSize=8;strokeColor=#ff0000;fontSize=18;startArrow=none;exitX=0.5;exitY=1;exitDx=0;exitDy=0;" parent="1" source="11" target="89" edge="1">
                    <mxGeometry relative="1" as="geometry">
                        <mxPoint x="304" y="354" as="targetPoint"/>
                        <mxPoint x="310.5" y="248.00000000000023" as="sourcePoint"/>
                    </mxGeometry>
                </mxCell>
                <mxCell id="94" value="&lt;font style=&quot;font-size: 13px;&quot;&gt;access token or refresh&lt;br&gt;token is missing&lt;/font&gt;" style="edgeStyle=orthogonalEdgeStyle;html=1;align=center;verticalAlign=bottom;endArrow=open;endSize=8;strokeColor=#ff0000;fontSize=18;exitX=0.5;exitY=0;exitDx=0;exitDy=0;labelBackgroundColor=none;" parent="1" source="98" target="111" edge="1">
                    <mxGeometry x="-0.6825" y="1" relative="1" as="geometry">
                        <mxPoint x="635.5" y="240" as="targetPoint"/>
                        <mxPoint x="267.5" y="399" as="sourcePoint"/>
                        <Array as="points">
                            <mxPoint x="237" y="416"/>
                            <mxPoint x="388" y="416"/>
                        </Array>
                        <mxPoint as="offset"/>
                    </mxGeometry>
                </mxCell>
                <mxCell id="95" value="&lt;font style=&quot;font-size: 13px;&quot;&gt;ok credentials&lt;/font&gt;" style="edgeStyle=orthogonalEdgeStyle;html=1;align=left;verticalAlign=top;endArrow=open;endSize=8;strokeColor=#ff0000;fontSize=18;exitX=0.5;exitY=1;exitDx=0;exitDy=0;entryX=0.5;entryY=0;entryDx=0;entryDy=0;labelBackgroundColor=none;" parent="1" source="98" target="99" edge="1">
                    <mxGeometry x="-0.8026" y="11" relative="1" as="geometry">
                        <mxPoint x="283.5" y="482" as="targetPoint"/>
                        <mxPoint x="267.4999999999998" y="399" as="sourcePoint"/>
                        <mxPoint as="offset"/>
                    </mxGeometry>
                </mxCell>
                <mxCell id="98" value="" style="rhombus;whiteSpace=wrap;html=1;fillColor=#ffffc0;strokeColor=#ff0000;strokeWidth=3;fontSize=18;" parent="1" vertex="1">
                    <mxGeometry x="221.5" y="432" width="30" height="40" as="geometry"/>
                </mxCell>
                <mxCell id="99" value="&lt;font style=&quot;font-size: 18px;&quot;&gt;Check this user has already an open session&lt;/font&gt;" style="rounded=1;whiteSpace=wrap;html=1;arcSize=40;fontColor=#000000;fillColor=#ffffc0;strokeColor=#ff0000;strokeWidth=3;fontSize=13;" parent="1" vertex="1">
                    <mxGeometry x="69.5" y="520" width="152" height="80" as="geometry"/>
                </mxCell>
                <mxCell id="100" value="" style="edgeStyle=orthogonalEdgeStyle;html=1;verticalAlign=bottom;endArrow=open;endSize=8;strokeColor=#ff0000;labelBackgroundColor=none;fontSize=13;entryX=0;entryY=0.5;entryDx=0;entryDy=0;" parent="1" source="99" target="110" edge="1">
                    <mxGeometry relative="1" as="geometry">
                        <mxPoint x="148" y="676" as="targetPoint"/>
                        <Array as="points"/>
                    </mxGeometry>
                </mxCell>
                <mxCell id="108" value="no" style="edgeStyle=orthogonalEdgeStyle;html=1;align=left;verticalAlign=bottom;endArrow=open;endSize=8;strokeColor=#ff0000;labelBackgroundColor=none;fontSize=18;exitX=0.5;exitY=0;exitDx=0;exitDy=0;" parent="1" source="110" target="113" edge="1">
                    <mxGeometry x="-0.9781" y="-3" relative="1" as="geometry">
                        <mxPoint x="488" y="528" as="targetPoint"/>
                        <mxPoint x="180" y="700" as="sourcePoint"/>
                        <Array as="points">
                            <mxPoint x="405" y="456"/>
                            <mxPoint x="546" y="456"/>
                        </Array>
                        <mxPoint as="offset"/>
                    </mxGeometry>
                </mxCell>
                <mxCell id="109" value="yes" style="edgeStyle=orthogonalEdgeStyle;html=1;align=left;verticalAlign=top;endArrow=open;endSize=8;strokeColor=#ff0000;labelBackgroundColor=none;fontSize=18;exitX=0.5;exitY=1;exitDx=0;exitDy=0;" parent="1" source="110" target="119" edge="1">
                    <mxGeometry x="-0.826" y="3" relative="1" as="geometry">
                        <mxPoint x="112" y="840" as="targetPoint"/>
                        <mxPoint x="140" y="720" as="sourcePoint"/>
                        <Array as="points">
                            <mxPoint x="405" y="600"/>
                            <mxPoint x="461" y="600"/>
                            <mxPoint x="461" y="580"/>
                        </Array>
                        <mxPoint as="offset"/>
                    </mxGeometry>
                </mxCell>
                <mxCell id="110" value="" style="rhombus;whiteSpace=wrap;html=1;fillColor=#ffffc0;strokeColor=#ff0000;strokeWidth=3;fontSize=18;" parent="1" vertex="1">
                    <mxGeometry x="389.5" y="540" width="30" height="40" as="geometry"/>
                </mxCell>
                <mxCell id="111" value="Error no credentials provided" style="rounded=1;whiteSpace=wrap;html=1;arcSize=40;fontColor=#000000;fillColor=#ffffc0;strokeColor=#ff0000;strokeWidth=3;fontSize=18;" parent="1" vertex="1">
                    <mxGeometry x="328" y="256" width="120" height="72" as="geometry"/>
                </mxCell>
                <mxCell id="112" value="" style="edgeStyle=orthogonalEdgeStyle;html=1;verticalAlign=bottom;endArrow=open;endSize=8;strokeColor=#ff0000;labelBackgroundColor=none;fontSize=18;exitX=0.5;exitY=0;exitDx=0;exitDy=0;" parent="1" source="111" target="8" edge="1">
                    <mxGeometry relative="1" as="geometry">
                        <mxPoint x="425.5" y="332" as="targetPoint"/>
                        <Array as="points">
                            <mxPoint x="392" y="256"/>
                            <mxPoint x="392" y="232"/>
                            <mxPoint x="421" y="232"/>
                        </Array>
                    </mxGeometry>
                </mxCell>
                <mxCell id="113" value="Error already logged in&amp;nbsp;" style="rounded=1;whiteSpace=wrap;html=1;arcSize=40;fontColor=#000000;fillColor=#ffffc0;strokeColor=#ff0000;strokeWidth=3;fontSize=18;" parent="1" vertex="1">
                    <mxGeometry x="485.5" y="248" width="120" height="68" as="geometry"/>
                </mxCell>
                <mxCell id="114" value="" style="edgeStyle=orthogonalEdgeStyle;html=1;verticalAlign=bottom;endArrow=open;endSize=8;strokeColor=#ff0000;labelBackgroundColor=none;fontSize=18;" parent="1" source="113" target="8" edge="1">
                    <mxGeometry relative="1" as="geometry">
                        <mxPoint x="575.5" y="344" as="targetPoint"/>
                        <Array as="points">
                            <mxPoint x="545" y="176"/>
                        </Array>
                    </mxGeometry>
                </mxCell>
                <mxCell id="116" value="" style="edgeStyle=orthogonalEdgeStyle;html=1;verticalAlign=bottom;endArrow=none;endSize=8;strokeColor=#ff0000;labelBackgroundColor=none;fontFamily=Helvetica;fontSize=18;fontColor=#FFFFFF;" parent="1" source="74" target="77" edge="1">
                    <mxGeometry relative="1" as="geometry">
                        <mxPoint x="637.4999999999998" y="1030" as="targetPoint"/>
                        <mxPoint x="547.5" y="1030" as="sourcePoint"/>
                    </mxGeometry>
                </mxCell>
                <mxCell id="77" value="" style="ellipse;html=1;shape=endState;fillColor=#000000;strokeColor=#ff0000;strokeWidth=3;fontFamily=Helvetica;fontSize=8;fontColor=#FFFFFF;" parent="1" vertex="1">
                    <mxGeometry x="575.5" y="1015" width="30" height="30" as="geometry"/>
                </mxCell>
                <mxCell id="119" value="&lt;span style=&quot;font-size: 18px;&quot;&gt;Check for appropriate login data provided&lt;/span&gt;" style="rounded=1;whiteSpace=wrap;html=1;arcSize=40;fontColor=#000000;fillColor=#ffffc0;strokeColor=#ff0000;strokeWidth=3;fontSize=13;" parent="1" vertex="1">
                    <mxGeometry x="502.5" y="528" width="120" height="104" as="geometry"/>
                </mxCell>
                <mxCell id="120" value="" style="edgeStyle=orthogonalEdgeStyle;html=1;verticalAlign=bottom;endArrow=open;endSize=8;strokeColor=#ff0000;labelBackgroundColor=none;fontSize=13;entryX=1;entryY=0.5;entryDx=0;entryDy=0;" parent="1" source="119" target="17" edge="1">
                    <mxGeometry relative="1" as="geometry">
                        <mxPoint x="116" y="946" as="targetPoint"/>
                        <Array as="points">
                            <mxPoint x="648" y="580"/>
                            <mxPoint x="648" y="684"/>
                        </Array>
                    </mxGeometry>
                </mxCell>
                <mxCell id="123" value="&lt;font style=&quot;font-size: 18px;&quot;&gt;Fill the password field again&lt;/font&gt;" style="rounded=1;whiteSpace=wrap;html=1;arcSize=40;fontColor=#000000;fillColor=#ffffc0;strokeColor=#ff0000;strokeWidth=3;" parent="1" vertex="1">
                    <mxGeometry x="432" y="772" width="128" height="73" as="geometry"/>
                </mxCell>
                <mxCell id="124" value="" style="edgeStyle=orthogonalEdgeStyle;html=1;verticalAlign=bottom;endArrow=open;endSize=8;strokeColor=#ff0000;exitX=-0.007;exitY=0.424;exitDx=0;exitDy=0;exitPerimeter=0;entryX=1;entryY=0;entryDx=0;entryDy=0;" parent="1" source="123" target="58" edge="1">
                    <mxGeometry relative="1" as="geometry">
                        <mxPoint x="492" y="866" as="targetPoint"/>
                        <Array as="points">
                            <mxPoint x="422" y="803"/>
                            <mxPoint x="422" y="836"/>
                            <mxPoint x="352" y="836"/>
                            <mxPoint x="352" y="888"/>
                        </Array>
                    </mxGeometry>
                </mxCell>
            </root>
        </mxGraphModel>
    </diagram>
</mxfile>